<svg width="160" height="189" viewBox="0 0 160 189" fill="none" xmlns="http://www.w3.org/2000/svg">
<path fill-rule="evenodd" clip-rule="evenodd" d="M160 0L144.481 31.0383L136.721 34.918V13.9067L113.443 46.5574V63.2787V79.9999L91.1476 124.59L80.0001 130.164L68.8526 124.59L46.5575 79.9999L46.5575 63.2787V46.5574L46.5574 46.5574L46.5573 46.5574L23.2787 13.9067L23.2787 34.918L15.5192 31.0383L1.33514e-05 0L1.4369e-05 23.2787L0 23.2787V46.5574L0.00013146 46.5574V68.3606L53.3334 175.027L80.0002 188.361L106.667 175.027L160 68.3606V46.5574H160V23.2787V0ZM46.5575 79.9999L46.5575 128.685L46.5575 146.885V79.9999Z" fill="#7E1E52"/>
</svg>
