<svg width="85" height="81" viewBox="0 0 85 81" fill="none" xmlns="http://www.w3.org/2000/svg">
<path d="M60.5623 6.30813C47.5468 2.82063 34.1847 10.5817 30.679 23.6652C25.9232 41.4141 42.4449 73.9229 42.4449 73.9229C42.4449 73.9229 73.0076 54.0303 77.7634 36.2814C81.2691 23.198 73.5778 9.79562 60.5623 6.30813ZM51.9565 38.4252C47.3153 37.1816 44.5632 32.3858 45.8133 27.7204C47.0633 23.055 51.8447 20.2779 56.4859 21.5215C61.127 22.7651 63.8792 27.5608 62.6291 32.2262C61.379 36.8916 56.5977 39.6688 51.9565 38.4252Z" fill="#7E1E52"/>
<path d="M40.5157 71.5755L40.2057 72.5262L41.2638 72.8712L41.4941 71.7824L40.5157 71.5755ZM40.5157 71.5755C41.4941 71.7824 41.4941 71.7821 41.4942 71.7818L41.4944 71.7806L41.4953 71.7764L41.4985 71.7611L41.5106 71.7028C41.5211 71.6519 41.5363 71.577 41.5559 71.4794C41.5949 71.2841 41.651 70.9977 41.7198 70.63C41.8574 69.8946 42.046 68.8337 42.2512 67.5255C42.6615 64.9105 43.1394 61.3007 43.4082 57.3251C43.6769 53.3529 43.7385 48.9937 43.3083 44.886C42.8796 40.7925 41.9548 36.8686 40.1956 33.8215C35.0314 24.8769 23.651 21.7902 14.7419 26.9339C5.83275 32.0776 2.81565 43.4766 7.97982 52.4212C9.73906 55.4683 12.6749 58.2312 16.0057 60.6493C19.3479 63.0757 23.1539 65.2019 26.7282 66.9553C30.3057 68.7102 33.6707 70.1013 36.1405 71.0535C37.3761 71.5298 38.3892 71.897 39.0948 72.1455C39.4477 72.2698 39.7237 72.3644 39.9124 72.4282C40.0067 72.4602 40.0792 72.4844 40.1285 72.5008L40.185 72.5194L40.1999 72.5243L40.2039 72.5256L40.2051 72.526C40.2054 72.5261 40.2057 72.5262 40.5157 71.5755ZM26.7469 47.7273C24.2246 49.1835 20.9804 48.3107 19.5102 45.7642C18.04 43.2177 18.9062 39.9717 21.4285 38.5154C23.9508 37.0592 27.195 37.9321 28.6652 40.4785C30.1354 43.025 29.2692 46.271 26.7469 47.7273Z" stroke="#7E1E52" stroke-width="2"/>
</svg>
