<svg width="80" height="72" viewBox="0 0 80 72" fill="none" xmlns="http://www.w3.org/2000/svg">
<path fill-rule="evenodd" clip-rule="evenodd" d="M0 6C0 2.68629 2.68629 0 6 0H74C77.3137 0 80 2.68629 80 6V42C80 45.3137 77.3137 48 74 48H6C2.68629 48 0 45.3137 0 42V6ZM8 14C8 10.6863 10.6863 8 14 8H66C69.3137 8 72 10.6863 72 14V34C72 37.3137 69.3137 40 66 40H14C10.6863 40 8 37.3137 8 34V14ZM40 36C46.6274 36 52 30.6274 52 24C52 17.3726 46.6274 12 40 12C33.3726 12 28 17.3726 28 24C28 30.6274 33.3726 36 40 36ZM64 24C64 26.2091 62.2091 28 60 28C57.7909 28 56 26.2091 56 24C56 21.7909 57.7909 20 60 20C62.2091 20 64 21.7909 64 24ZM20 28C22.2091 28 24 26.2091 24 24C24 21.7909 22.2091 20 20 20C17.7909 20 16 21.7909 16 24C16 26.2091 17.7909 28 20 28ZM66.4786 71.517L12.3003 57H40.5H43.2099L60.8218 61.7191C64.0226 62.5767 67.3126 60.6772 68.1703 57.4764L68.2979 57H76.5801L73.8271 67.2744C72.9695 70.4752 69.6794 72.3747 66.4786 71.517Z" fill="#704300"/>
</svg>
