<svg width="70" height="70" viewBox="0 0 70 70" fill="none" xmlns="http://www.w3.org/2000/svg">
<path d="M0 31.1111H31.1111V0H0V31.1111ZM7.77778 7.77778H23.3333V23.3333H7.77778V7.77778Z" fill="#7E1E52"/>
<path d="M0 69.9672H31.1111V38.8561H0V69.9672ZM7.77778 46.6339H23.3333V62.1894H7.77778V46.6339Z" fill="#7E1E52"/>
<path d="M38.8889 0V31.1111H70V0H38.8889ZM62.2222 23.3333H46.6667V7.77778H62.2222V23.3333Z" fill="#7E1E52"/>
<path d="M70 62.2222H62.2222V70H70V62.2222Z" fill="#7E1E52"/>
<path d="M46.6667 38.8889H38.8889V46.6667H46.6667V38.8889Z" fill="#7E1E52"/>
<path d="M54.4444 46.6667L46.6667 46.6667V54.4444H54.4444V46.6667Z" fill="#7E1E52"/>
<path d="M46.6667 54.4444L38.8889 54.4445V62.2222H46.6667V54.4444Z" fill="#7E1E52"/>
<path d="M54.4444 62.2222L46.6667 62.2222V70H54.4444V62.2222Z" fill="#7E1E52"/>
<path d="M62.2222 54.4445L54.4444 54.4444V62.2222H62.2222V54.4445Z" fill="#7E1E52"/>
<path d="M62.2222 38.8889H54.4444L54.4444 46.6667L62.2222 46.6667V38.8889Z" fill="#7E1E52"/>
<path d="M70 46.6667L62.2222 46.6667V54.4445L70 54.4444V46.6667Z" fill="#7E1E52"/>
</svg>
