<svg width="68" height="56" viewBox="0 0 68 56" fill="none" xmlns="http://www.w3.org/2000/svg">
<path d="M30.4224 12.6021L49.2036 45.132L45.3633 47.3493C44.6329 46.0842 41.8202 46.0816 40.5051 46.2385L29.1913 48.5537C29.2177 49.6428 28.9994 51.9777 27.9151 52.6037C26.5597 53.3863 22.1278 53.5354 21.0588 53.249C20.2036 53.0198 19.4851 51.0451 19.2328 50.0863L14.0277 50.9831L7.76732 40.1398C12.8955 34.0666 23.5444 21.4526 25.115 19.582C26.6856 17.7114 26.7475 15.6274 26.5821 14.8193L30.4224 12.6021Z" fill="#7E1E52"/>
<path d="M0.538452 44.3134L4.15289 42.2266L10.4133 53.0699L6.79884 55.1567L0.538452 44.3134Z" fill="#7E1E52"/>
<path d="M43.5398 0.750061L42.0122 6.4513C56.1798 10.2475 64.5895 24.8137 60.7934 38.9812L66.4946 40.5089C71.131 23.2056 60.8535 5.40453 43.5398 0.750061ZM40.4845 12.1525L38.9569 17.8538C46.8246 19.9619 51.499 28.0583 49.3909 35.926L55.0921 37.4536C58.0405 26.4502 51.4984 15.119 40.4845 12.1525Z" fill="#7E1E52"/>
</svg>
