<svg width="45" height="36" viewBox="0 0 45 36" fill="none" xmlns="http://www.w3.org/2000/svg">
<path d="M15.7068 9.83508L15.9025 17.7129H14.3856C12.5589 17.7129 10.8626 17.8924 9.29685 18.2512C7.69844 18.61 6.40993 19.3113 5.43132 20.3552C4.4527 21.3991 3.96339 22.9648 3.96339 25.0526C3.96339 27.075 4.59949 28.6734 5.87169 29.8478C7.11127 31.0221 8.75861 31.6093 10.8137 31.6093C12.9014 31.6093 14.5487 31.0384 15.7557 29.8967C16.9627 28.755 17.5661 27.2218 17.5661 25.2972H21.4806C21.4806 27.2544 21.0402 28.967 20.1595 30.4349C19.2461 31.9029 17.9902 33.0446 16.3918 33.8601C14.7934 34.6756 12.934 35.0834 10.8137 35.0834C8.69337 35.0834 6.81769 34.6756 5.18666 33.8601C3.55564 33.0446 2.28344 31.8865 1.37006 30.386C0.456687 28.8855 -1.79662e-07 27.1076 0 25.0526C2.11031e-07 22.6386 0.52193 20.6814 1.56579 19.1809C2.57702 17.6803 3.99602 16.5875 5.82276 15.9025C7.61689 15.2175 9.67198 14.875 11.988 14.875L12.1348 9.83508H15.7068ZM13.9453 0C14.7608 7.12944e-08 15.4458 0.260966 16.0004 0.782894C16.5223 1.33744 16.7833 2.00616 16.7833 2.78905C16.7833 3.57195 16.5223 4.22436 16.0004 4.74628C15.4458 5.30083 14.7608 5.57811 13.9453 5.57811C13.1298 5.57811 12.461 5.30083 11.9391 4.74628C11.4172 4.22436 11.1562 3.57195 11.1562 2.78905C11.1562 2.00616 11.4172 1.33744 11.9391 0.782894C12.461 0.260966 13.1298 -7.12944e-08 13.9453 0Z" fill="#7E1E52"/>
<path d="M29.2932 25.2483L29.0975 17.3704H30.6144C32.4411 17.3704 34.1374 17.191 35.7032 16.8322C37.3016 16.4734 38.5901 15.772 39.5687 14.7282C40.5473 13.6843 41.0366 12.1185 41.0366 10.0308C41.0366 8.00834 40.4005 6.40993 39.1283 5.23559C37.8887 4.06125 36.2414 3.47408 34.1863 3.47408C32.0986 3.47408 30.4513 4.04494 29.2443 5.18666C28.0373 6.32838 27.4339 7.86154 27.4339 9.78615H23.5194C23.5194 7.82892 23.9598 6.11635 24.8405 4.64842C25.7539 3.1805 27.0098 2.03878 28.6082 1.22327C30.2066 0.407757 32.066 6.5876e-07 34.1863 6.5876e-07C36.3066 6.5876e-07 38.1823 0.407757 39.8133 1.22327C41.4444 2.03878 42.7166 3.19681 43.6299 4.69735C44.5433 6.1979 45 7.97571 45 10.0308C45 12.4447 44.4781 14.402 43.4342 15.9025C42.423 17.403 41.004 18.4958 39.1772 19.1809C37.3831 19.8659 35.328 20.2084 33.012 20.2084L32.8652 25.2483H29.2932ZM31.0547 35.0834C30.2392 35.0834 29.5542 34.8224 28.9996 34.3005C28.4777 33.7459 28.2167 33.0772 28.2167 32.2943C28.2167 31.5114 28.4777 30.859 28.9996 30.3371C29.5542 29.7825 30.2392 29.5053 31.0547 29.5053C31.8702 29.5053 32.539 29.7825 33.0609 30.3371C33.5828 30.859 33.8438 31.5114 33.8438 32.2943C33.8438 33.0772 33.5828 33.7459 33.0609 34.3005C32.539 34.8224 31.8702 35.0834 31.0547 35.0834Z" fill="#7E1E52"/>
</svg>
