<?xml version="1.0" encoding="UTF-8" standalone="no"?>
<svg
   width="62"
   height="40"
   viewBox="0 0 62 40"
   fill="none"
   version="1.1"
   id="svg45"
   sodipodi:docname="register.svg"
   inkscape:version="1.1.1 (3bf5ae0d25, 2021-09-20)"
   xmlns:inkscape="http://www.inkscape.org/namespaces/inkscape"
   xmlns:sodipodi="http://sodipodi.sourceforge.net/DTD/sodipodi-0.dtd"
   xmlns="http://www.w3.org/2000/svg"
   xmlns:svg="http://www.w3.org/2000/svg">
  <defs
     id="defs49">
    <linearGradient
       id="linearGradient1026"
       inkscape:swatch="solid">
      <stop
         style="stop-color:#704300;stop-opacity:1;"
         offset="0"
         id="stop1024" />
    </linearGradient>
  </defs>
  <sodipodi:namedview
     id="namedview47"
     pagecolor="#ffffff"
     bordercolor="#666666"
     borderopacity="1.0"
     inkscape:pageshadow="2"
     inkscape:pageopacity="0.0"
     inkscape:pagecheckerboard="0"
     showgrid="false"
     inkscape:snap-page="false"
     inkscape:snap-text-baseline="false"
     inkscape:snap-center="true"
     inkscape:snap-midpoints="false"
     inkscape:snap-smooth-nodes="false"
     inkscape:zoom="8.1773478"
     inkscape:cx="20.238836"
     inkscape:cy="21.094859"
     inkscape:window-width="1920"
     inkscape:window-height="1009"
     inkscape:window-x="-8"
     inkscape:window-y="-8"
     inkscape:window-maximized="1"
     inkscape:current-layer="svg45" />
  <mask
     id="mask0_138_398"
     style="mask-type:alpha"
     maskUnits="userSpaceOnUse"
     x="13"
     y="2"
     width="49"
     height="38">
    <path
       d="M57.3793 3.58611C54.9297 2.8137 52.2373 2.48267 49.6552 2.48267C45.3517 2.48267 40.7173 3.36542 37.5173 5.79301C34.3173 3.36542 29.6828 2.48267 25.3793 2.48267C21.0759 2.48267 16.4414 3.36542 13.2414 5.79301V38.124C13.2414 38.6758 13.7931 39.2275 14.3448 39.2275C14.5655 39.2275 14.6759 39.1172 14.8966 39.1172C17.8759 37.6827 22.1793 36.6896 25.3793 36.6896C29.6828 36.6896 34.3173 37.5723 37.5173 39.9999C40.4966 38.124 45.9035 36.6896 49.6552 36.6896C53.2966 36.6896 57.0483 37.3516 60.138 39.0068C60.3586 39.1172 60.469 39.1172 60.6897 39.1172C61.2414 39.1172 61.7931 38.5654 61.7931 38.0137V5.79301C60.469 4.79991 59.0345 4.13784 57.3793 3.58611ZM57.3793 33.3792C54.9517 32.6068 52.3035 32.2758 49.6552 32.2758C45.9035 32.2758 40.4966 33.7103 37.5173 35.5861V10.2068C40.4966 8.33094 45.9035 6.89646 49.6552 6.89646C52.3035 6.89646 54.9517 7.22749 57.3793 7.99991V33.3792Z"
       fill="#704300"
       id="path30" />
    <path
       d="M49.6552 15.724C51.5973 15.724 53.4731 15.9227 55.1724 16.2978V12.9434C53.429 12.6123 51.5531 12.4137 49.6552 12.4137C45.9035 12.4137 42.5048 13.0537 39.7242 14.2454V17.9089C42.2179 16.4965 45.6828 15.724 49.6552 15.724Z"
       fill="#704300"
       id="path32" />
    <path
       d="M39.7242 20.1158V23.7792C42.2179 22.3668 45.6828 21.5944 49.6552 21.5944C51.5973 21.5944 53.4731 21.793 55.1724 22.1682V18.8137C53.429 18.4827 51.5531 18.284 49.6552 18.284C45.9035 18.284 42.5048 18.9461 39.7242 20.1158Z"
       fill="#704300"
       id="path34" />
    <path
       d="M49.6552 24.1765C45.9035 24.1765 42.5048 24.8165 39.7242 26.0082V29.6716C42.2179 28.2592 45.6828 27.4868 49.6552 27.4868C51.5973 27.4868 53.4731 27.6854 55.1724 28.0606V24.7061C53.429 24.353 51.5531 24.1765 49.6552 24.1765Z"
       fill="#704300"
       id="path36" />
  </mask>
  <g
     mask="url(#mask0_138_398)"
     id="g41"
     style="fill:#704300;fill-opacity:1;opacity:1;fill-rule:evenodd">
    <path
       fill-rule="evenodd"
       clip-rule="evenodd"
       d="M28.9655 19.5863V28.6897H19.3103L13.2414 22.6208V5.79293C13.6085 5.51443 13.9945 5.25627 14.3967 5.01744L28.9655 19.5863ZM14.3967 5.01744C17.5004 3.17442 21.5696 2.48259 25.3793 2.48259C29.6827 2.48259 34.3172 3.36534 37.5172 5.79293C40.7172 3.36534 45.3517 2.48259 49.6552 2.48259C52.2372 2.48259 54.9297 2.81362 57.3793 3.58603C59.0345 4.13776 60.469 4.79983 61.7931 5.79293V38.0136C61.7931 38.5653 61.2414 39.1171 60.6896 39.1171C60.469 39.1171 60.3586 39.1171 60.1379 39.0067C57.0483 37.3516 53.2965 36.6895 49.6552 36.6895C45.9034 36.6895 40.4965 38.124 37.5172 39.9998C34.3172 37.5722 29.6827 36.6895 25.3793 36.6895C22.1793 36.6895 17.8759 37.6826 14.8965 39.1171C14.7862 39.1171 14.7034 39.1447 14.6207 39.1722C14.5379 39.1998 14.4552 39.2274 14.3448 39.2274C13.7931 39.2274 13.2414 38.6757 13.2414 38.124V22.6208L1.59684 10.9762L1.32414 10.7587L-2.08448 7.34999C-2.74402 6.69046 -1.03056 4.52163 -0.371023 3.86209L3.58617 -0.0951009C4.2457 -0.754633 6.96628 -2.46814 7.62582 -1.80861L11.0344 1.60008L11.252 1.87277L14.3967 5.01744ZM49.6552 32.2757C52.3034 32.2757 54.9517 32.6067 57.3793 33.3791V7.99983C54.9517 7.22741 52.3034 6.89638 49.6552 6.89638C45.9034 6.89638 40.4965 8.33086 37.5172 10.2067V35.586C40.4965 33.7102 45.9034 32.2757 49.6552 32.2757ZM55.1724 16.2978C53.4731 15.9226 51.5972 15.724 49.6552 15.724C45.6828 15.724 42.2179 16.4964 39.7241 17.9088V14.2453C42.5048 13.0536 45.9034 12.4136 49.6552 12.4136C51.5531 12.4136 53.429 12.6122 55.1724 12.9433V16.2978ZM39.7241 20.1157V23.7791C42.2179 22.3667 45.6828 21.5943 49.6552 21.5943C51.5972 21.5943 53.4731 21.7929 55.1724 22.1681V18.8136C53.429 18.4826 51.5531 18.284 49.6552 18.284C45.9034 18.284 42.5048 18.946 39.7241 20.1157ZM39.7241 26.0081C42.5048 24.8164 45.9034 24.1764 49.6552 24.1764C51.5531 24.1764 53.429 24.3529 55.1724 24.706V28.0605C53.4731 27.6853 51.5972 27.4867 49.6552 27.4867C45.6828 27.4867 42.2179 28.2591 39.7241 29.6716V26.0081Z"
       fill="#704300"
       id="path39"
       style="fill:#704300;fill-opacity:1;fill-rule:evenodd" />
  </g>
  <path
     d="M26.7585 21.2421V26.7586H21.2421L4.69628 10.2128L10.2128 4.69636L26.7585 21.2421ZM0.430204 5.94676C-0.14351 5.37305 -0.14351 4.44628 0.430204 3.87257L3.87248 0.430285C4.4462 -0.143428 5.37297 -0.143428 5.94668 0.430285L8.63872 3.12233L3.12224 8.6388L0.430204 5.94676Z"
     fill="#704300"
     id="path43" />
  <path
     style="opacity:1;fill:#704300;fill-opacity:1;fill-rule:nonzero;stroke-width:0.122289"
     d="m 36.969133,39.528096 c -3.452858,-2.339476 -9.833908,-3.447076 -14.978881,-2.59998 -1.758056,0.289456 -4.368828,0.998629 -5.844863,1.587659 -1.965979,0.784548 -1.941524,0.7818 -2.448195,0.27513 l -0.428833,-0.428834 v -7.807237 -7.807238 l 3.027553,3.025736 3.027553,3.025737 h 4.86009 4.86009 V 24.183037 19.567004 L 21.758944,12.281543 14.474242,4.9960814 15.559933,4.4916475 c 3.207243,-1.4901489 7.546096,-2.1859403 11.693933,-1.8752741 4.331501,0.3244224 6.856257,1.0914711 9.993442,3.0361175 0.303291,0.1880014 0.339495,0.1797374 0.898997,-0.2052107 5.318119,-3.6589616 16.288832,-3.8865356 22.26448,-0.4618493 0.470813,0.2698262 0.952326,0.5739808 1.070029,0.6758991 0.201813,0.1747477 0.214006,1.1114673 0.214006,16.440202 v 16.254896 l -0.357461,0.357459 c -0.196602,0.196604 -0.453839,0.357461 -0.571635,0.357461 -0.117796,0 -0.851178,-0.272343 -1.629736,-0.605205 -2.987059,-1.277078 -5.485301,-1.760532 -9.119771,-1.764834 -2.718198,-0.0032 -3.782458,0.133739 -6.481319,0.834065 -1.990785,0.516588 -3.408592,1.030676 -4.88593,1.771607 l -1.152835,0.578183 z m 4.792574,-5.756877 c 3.918644,-1.30036 7.383312,-1.684424 11.190196,-1.240454 1.388822,0.16197 3.611647,0.611044 4.248795,0.858379 0.20298,0.07879 0.214006,-0.575452 0.214006,-12.698545 V 7.908978 L 56.092491,7.5928237 C 53.071885,6.8705667 49.314378,6.6711593 46.592124,7.0886484 43.783799,7.5193375 40.665099,8.4796144 38.551619,9.5643951 L 37.48159,10.113607 v 12.758851 12.75885 l 1.314608,-0.656128 c 0.723034,-0.360871 2.057513,-0.902653 2.965509,-1.203961 z"
     id="path4820" />
  <path
     style="opacity:1;fill:#704300;fill-opacity:1;fill-rule:nonzero;stroke-width:0.122289"
     d="m 39.805082,27.772177 v -1.733001 l 0.580873,-0.220458 c 1.808904,-0.686531 4.07795,-1.206404 6.25134,-1.432275 1.568456,-0.163003 5.836895,-0.08845 7.108738,0.124163 1.502677,0.251201 1.345179,0.03339 1.345179,1.860298 v 1.602714 l -0.39241,-0.07848 c -1.689291,-0.337859 -3.484958,-0.463549 -5.783186,-0.404804 -3.35152,0.08567 -5.66331,0.528667 -7.987203,1.530552 l -1.123331,0.484294 z"
     id="path4859" />
  <path
     style="opacity:1;fill:#704300;fill-opacity:1;fill-rule:nonzero;stroke-width:0.122289"
     d="m 39.805082,21.90877 v -1.75828 l 0.695266,-0.266063 c 3.625768,-1.387502 9.25776,-1.889077 13.551407,-1.206862 l 0.978312,0.155443 0.03417,1.626297 0.03417,1.626297 -0.401033,-0.07029 c -0.220567,-0.03866 -0.676182,-0.126797 -1.012477,-0.195863 -1.005798,-0.206566 -5.600595,-0.285178 -7.038571,-0.120422 -2.352958,0.26959 -4.73873,0.901669 -6.199217,1.6424 l -0.642018,0.325619 z"
     id="path4898" />
  <path
     style="opacity:1;fill:#704300;fill-opacity:1;fill-rule:nonzero;stroke-width:0.122289"
     d="m 39.805082,16.033489 v -1.763685 l 1.070029,-0.387718 c 2.532179,-0.917518 5.333272,-1.352777 8.709869,-1.353417 1.943169,-3.68e-4 4.787929,0.229483 5.353371,0.432543 0.111697,0.04011 0.152861,0.485525 0.152861,1.654031 v 1.599137 l -0.397439,-0.06961 c -0.218592,-0.03829 -0.67259,-0.126122 -1.008885,-0.195189 -1.005798,-0.206566 -5.600595,-0.285177 -7.038571,-0.120421 -2.352958,0.26959 -4.73873,0.901668 -6.199217,1.642399 l -0.642018,0.325619 z"
     id="path4937" />
</svg>
